<?xml version="1.0" encoding="UTF-8"?>
<svg id="Layer_2" data-name="Layer 2" xmlns="http://www.w3.org/2000/svg" viewBox="0 0 714 238.51">
  <defs>
    <style>
      .cls-1 {
        fill: #891d1f;
      }

      .cls-2 {
        fill: #bda88f;
      }

      .cls-3 {
        fill: #231f20;
      }

      .cls-4 {
        fill: #c7b299;
      }
    </style>
  </defs>
  <g id="baggrund">
    <g>
      <g>
        <path class="cls-4" d="M714,119c0,65.72-159.83,119-357,119-140.54,0-262.12-27.07-320.35-66.42C13.18,155.72,0,137.87,0,119,0,53.28,159.83,0,357,0s357,53.28,357,119Z"/>
        <path class="cls-2" d="M537.79,17c54.46,31.04,85.71,67.22,85.71,105.84,0,35.48-26.36,68.88-72.85,98.14,98.3-21.34,163.35-58.45,163.35-100.66s-70.77-82.5-176.21-103.33Z"/>
        <path class="cls-3" d="M679,171.5s-66.61,65.92-320.75,67c-234.62,1-320.75-67-320.75-67,0,0,81.83-69,320.75-67,262.15,2.19,320.75,67,320.75,67Z"/>
      </g>
      <g>
        <path class="cls-1" d="M280.45,67.22v-6.62l30.49-37.91h8.09v54.93c0,.68.16,1.21.49,1.6.33.38.8.7,1.42.93l4.27,1.64v2.62h-24.98v-2.62l4.8-1.64c.65-.24,1.13-.55,1.44-.96.31-.4.47-.93.47-1.58v-34.44l.09-7.47-20.13,25.07,5.29-.13h37.02v6.58h-48.76Z"/>
        <path class="cls-1" d="M356.22,69.13c-4.77,0-8.94-.97-12.51-2.91-3.57-1.94-6.33-4.67-8.29-8.18-1.96-3.51-2.93-7.61-2.93-12.29,0-4.36.97-8.31,2.91-11.87,1.94-3.56,4.73-6.38,8.36-8.49,3.63-2.1,7.96-3.16,13-3.16,5.42,0,9.88,1.1,13.38,3.31,3.5,2.21,6.1,5.09,7.8,8.64s2.56,7.35,2.56,11.38c0,4.3-.96,8.23-2.89,11.8-1.93,3.57-4.7,6.42-8.31,8.56s-7.97,3.2-13.07,3.2ZM356.89,64.46c2.07,0,3.79-.57,5.16-1.71,1.36-1.14,2.43-2.61,3.2-4.42.77-1.81,1.31-3.76,1.62-5.87.31-2.1.47-4.1.47-6,0-3.14-.36-6.21-1.09-9.2-.73-2.99-1.91-5.47-3.56-7.42s-3.83-2.93-6.56-2.93c-2.07,0-3.78.56-5.11,1.69-1.33,1.13-2.39,2.59-3.18,4.4-.79,1.81-1.34,3.75-1.67,5.84s-.49,4.1-.49,6.02c0,2.07.18,4.25.53,6.53.36,2.28.95,4.41,1.78,6.38.83,1.97,1.97,3.58,3.42,4.82,1.45,1.24,3.27,1.87,5.47,1.87Z"/>
        <path class="cls-1" d="M383.47,67.22v-6.62l30.49-37.91h8.09v54.93c0,.68.16,1.21.49,1.6.33.38.8.7,1.42.93l4.27,1.64v2.62h-24.98v-2.62l4.8-1.64c.65-.24,1.13-.55,1.44-.96.31-.4.47-.93.47-1.58v-34.44l.09-7.47-20.13,25.07,5.29-.13h37.02v6.58h-48.75Z"/>
      </g>
    </g>
  </g>
</svg>